<svg width="24" height="23" viewBox="0 0 24 23" fill="none" xmlns="http://www.w3.org/2000/svg">
<path fill-rule="evenodd" clip-rule="evenodd" d="M1 2.71973C1 2.25258 1.19365 1.80455 1.53834 1.47422C1.88303 1.14389 2.35053 0.958315 2.838 0.958315H21.16C21.4016 0.957937 21.6409 1.00323 21.8641 1.09159C22.0874 1.17995 22.2903 1.30965 22.4612 1.47326C22.6322 1.63688 22.7677 1.83119 22.8602 2.04507C22.9526 2.25896 23.0001 2.48822 23 2.71973V20.2783C23.0003 20.5099 22.9529 20.7392 22.8606 20.9532C22.7683 21.1672 22.6328 21.3616 22.462 21.5254C22.2912 21.6892 22.0884 21.8191 21.8651 21.9077C21.6419 21.9962 21.4026 22.0418 21.161 22.0416H2.838C2.59655 22.0416 2.35746 21.9961 2.1344 21.9075C1.91134 21.8189 1.70867 21.6891 1.53798 21.5254C1.3673 21.3617 1.23193 21.1674 1.13962 20.9536C1.04731 20.7398 0.999869 20.5107 1 20.2793V2.71973ZM9.708 8.99682H12.687V10.4305C13.117 9.60632 14.217 8.86457 15.87 8.86457C19.039 8.86457 19.79 10.5062 19.79 13.5182V19.0976H16.583V14.2044C16.583 12.489 16.153 11.5211 15.061 11.5211C13.546 11.5211 12.916 12.5647 12.916 14.2044V19.0976H9.708V8.99682ZM4.208 18.9664H7.416V8.86457H4.208V18.9654V18.9664ZM7.875 5.56982C7.88105 5.83304 7.83217 6.09478 7.73124 6.33966C7.63031 6.58454 7.47935 6.80763 7.28723 6.99585C7.09511 7.18406 6.8657 7.3336 6.61246 7.4357C6.35921 7.53779 6.08724 7.59038 5.8125 7.59038C5.53776 7.59038 5.26579 7.53779 5.01255 7.4357C4.7593 7.3336 4.52989 7.18406 4.33777 6.99585C4.14565 6.80763 3.99469 6.58454 3.89376 6.33966C3.79283 6.09478 3.74395 5.83304 3.75 5.56982C3.76187 5.05313 3.98439 4.56145 4.36989 4.20006C4.75539 3.83866 5.27322 3.6363 5.8125 3.6363C6.35178 3.6363 6.86961 3.83866 7.25512 4.20006C7.64062 4.56145 7.86313 5.05313 7.875 5.56982Z" fill="#3F33FF"/>
</svg>
